<svg width="24" height="25" viewBox="0 0 24 25" fill="none" xmlns="http://www.w3.org/2000/svg">
<g clip-path="url(#clip0_42_68)">
<path d="M20.3303 4.74327C18.7535 4.02136 17.0889 3.50921 15.3789 3.21991C15.1449 3.6382 14.9332 4.06856 14.7447 4.5092C12.9233 4.23473 11.071 4.23473 9.24963 4.5092C9.06097 4.06861 8.84926 3.63825 8.61537 3.21991C6.90435 3.51165 5.23861 4.02502 3.6602 4.74705C0.526645 9.38319 -0.322812 13.9042 0.101917 18.361C1.937 19.7169 3.99099 20.748 6.17459 21.4096C6.66627 20.7483 7.10135 20.0468 7.47521 19.3124C6.76512 19.0472 6.07977 18.72 5.42707 18.3346C5.59885 18.21 5.76685 18.0816 5.92919 17.957C7.82839 18.8502 9.90126 19.3133 12 19.3133C14.0987 19.3133 16.1716 18.8502 18.0708 17.957C18.235 18.0911 18.403 18.2194 18.5729 18.3346C17.9189 18.7206 17.2323 19.0484 16.521 19.3143C16.8944 20.0483 17.3295 20.7493 17.8216 21.4096C20.0071 20.7507 22.0626 19.72 23.898 18.3629C24.3964 13.1944 23.0467 8.71495 20.3303 4.74327ZM8.0132 15.6201C6.82962 15.6201 5.8518 14.546 5.8518 13.2246C5.8518 11.9033 6.79564 10.8197 8.00942 10.8197C9.2232 10.8197 10.1935 11.9033 10.1727 13.2246C10.1519 14.546 9.21943 15.6201 8.0132 15.6201ZM15.9868 15.6201C14.8013 15.6201 13.8273 14.546 13.8273 13.2246C13.8273 11.9033 14.7711 10.8197 15.9868 10.8197C17.2024 10.8197 18.1652 11.9033 18.1444 13.2246C18.1236 14.546 17.193 15.6201 15.9868 15.6201Z" fill="#5865F2"/>
</g>
<defs>
<clipPath id="clip0_42_68">
<rect width="24" height="18.1897" fill="white" transform="translate(0 3.21991)"/>
</clipPath>
</defs>
</svg>
