<svg width="25" height="25" viewBox="0 0 25 25" fill="none" xmlns="http://www.w3.org/2000/svg">
<path d="M24.5 12.2945C24.5 5.62924 19.1241 0.21991 12.5 0.21991C5.8759 0.21991 0.5 5.62924 0.5 12.2945C0.5 18.3256 4.88723 23.3246 10.6339 24.2199V15.7764H7.569V12.2945H10.6339V9.63338C10.6339 6.61162 12.4135 4.93286 15.1571 4.93286C16.467 4.93286 17.8265 5.18157 17.8265 5.18157V8.12872H16.3187C14.8234 8.12872 14.3538 9.0738 14.3538 10.0189V12.2821H17.6905L17.1591 15.764H14.3538V24.2075C20.1128 23.3246 24.5 18.3256 24.5 12.2945Z" fill="#1877F2"/>
<path d="M17.1712 15.6845L17.7026 12.2259H14.3658V9.97785C14.3658 9.02674 14.8478 8.10034 16.3308 8.10034H17.8385V5.16055C17.8385 5.16055 16.4791 4.91351 15.1691 4.91351C12.4255 4.91351 10.6459 6.58104 10.6459 9.58258V12.2259H7.58105V15.6845H10.6459V24.0715C11.2515 24.1703 11.8818 24.2197 12.512 24.2197C13.1423 24.2197 13.7726 24.1703 14.3782 24.0715V15.6845H17.1712Z" fill="white"/>
</svg>
