<svg width="12" height="12" viewBox="0 0 12 12" fill="none" xmlns="http://www.w3.org/2000/svg">
<path fill-rule="evenodd" clip-rule="evenodd" d="M9.91585 4.89302L11.177 3.63184C11.5597 3.24913 11.7515 3.05742 11.854 2.85097C11.95 2.65714 12 2.44373 12 2.2274C12 2.01107 11.95 1.79767 11.854 1.60383C11.7515 1.39738 11.5597 1.20567 11.177 0.822963C10.7943 0.440254 10.6026 0.248548 10.3962 0.146024C10.2023 0.0499738 9.98893 0 9.7726 0C9.55627 0 9.34286 0.0499738 9.14903 0.146024C8.94258 0.248548 8.75087 0.440254 8.36816 0.822963L7.09083 2.1003C7.77032 3.2636 8.74481 4.22695 9.91585 4.89302ZM6.0698 3.12133L1.24555 7.94557C0.946409 8.24472 0.797538 8.39359 0.699228 8.57757C0.600917 8.76014 0.559486 8.9673 0.477327 9.38161L0.0447596 11.5423C-0.00158681 11.7755 -0.0254623 11.892 0.0412485 11.9588C0.107959 12.0255 0.223825 12.0016 0.457664 11.9552L2.61839 11.5227C3.0327 11.4405 3.23986 11.3991 3.42314 11.3008C3.60571 11.2025 3.75529 11.0536 4.05373 10.7551L8.89202 5.91686C7.75587 5.20556 6.79172 4.25101 6.0691 3.12203" fill="white"/>
</svg>
