<svg width="27" height="27" viewBox="0 0 27 27" fill="none" xmlns="http://www.w3.org/2000/svg">
<path d="M19.386 16.2C19.494 15.309 19.575 14.418 19.575 13.5C19.575 12.582 19.494 11.691 19.386 10.8H23.949C24.165 11.664 24.3 12.5685 24.3 13.5C24.3 14.4315 24.165 15.336 23.949 16.2M16.9965 23.706C17.8065 22.2075 18.4275 20.5875 18.8595 18.9H22.842C21.5341 21.1522 19.4591 22.8582 16.9965 23.706ZM16.659 16.2H10.341C10.206 15.309 10.125 14.418 10.125 13.5C10.125 12.582 10.206 11.6775 10.341 10.8H16.659C16.7805 11.6775 16.875 12.582 16.875 13.5C16.875 14.418 16.7805 15.309 16.659 16.2ZM13.5 24.246C12.3795 22.626 11.475 20.8305 10.9215 18.9H16.0785C15.525 20.8305 14.6205 22.626 13.5 24.246ZM8.1 8.1H4.158C5.45246 5.84174 7.52597 4.13301 9.99 3.294C9.18 4.7925 8.5725 6.4125 8.1 8.1ZM4.158 18.9H8.1C8.5725 20.5875 9.18 22.2075 9.99 23.706C7.53114 22.8577 5.46054 21.1514 4.158 18.9ZM3.051 16.2C2.835 15.336 2.7 14.4315 2.7 13.5C2.7 12.5685 2.835 11.664 3.051 10.8H7.614C7.506 11.691 7.425 12.582 7.425 13.5C7.425 14.418 7.506 15.309 7.614 16.2M13.5 2.7405C14.6205 4.3605 15.525 6.1695 16.0785 8.1H10.9215C11.475 6.1695 12.3795 4.3605 13.5 2.7405ZM22.842 8.1H18.8595C18.437 6.42797 17.8113 4.81396 16.9965 3.294C19.4805 4.1445 21.546 5.859 22.842 8.1ZM13.5 0C6.0345 0 0 6.075 0 13.5C0 17.0804 1.42232 20.5142 3.95406 23.0459C5.20765 24.2995 6.69588 25.2939 8.33377 25.9724C9.97167 26.6508 11.7272 27 13.5 27C17.0804 27 20.5142 25.5777 23.0459 23.0459C25.5777 20.5142 27 17.0804 27 13.5C27 11.7272 26.6508 9.97167 25.9724 8.33377C25.2939 6.69588 24.2995 5.20765 23.0459 3.95406C21.7924 2.70047 20.3041 1.70606 18.6662 1.02763C17.0283 0.349188 15.2728 0 13.5 0Z" fill="black"/>
</svg>
